<svg xmlns="http://www.w3.org/2000/svg" viewBox="0 0 24 24" role="img" aria-hidden="true"><path fill="currentColor" d="M9.4 7.1H2.7A1.7 1.7 0 0 0 1 8.8v6.8a1.7 1.7 0 0 0 1.7 1.7h6.7a1.7 1.7 0 0 0 1.7-1.7V8.8a1.7 1.7 0 0 0-1.7-1.7Zm-.9 3H6.7v4.8H5.1v-4.8H3.3V8.8h5.2v1.3Zm7.2 7.2a3.2 3.2 0 0 1-3-2.1v-6a3.2 3.2 0 1 1 3 8.1Zm4-1.5a2.7 2.7 0 0 1-2.1-1 4.6 4.6 0 0 0 .6-2.3 4.6 4.6 0 0 0-.6-2.3 2.7 2.7 0 1 1 2.1 5.4Zm-4-7.3a1.9 1.9 0 1 0 0-3.8 1.9 1.9 0 0 0 0 3.8Zm4-1a1.5 1.5 0 1 0 0-3 1.5 1.5 0 0 0 0 3Z"/></svg>
